<svg width="101" height="59" viewBox="0 0 101 59" fill="none" xmlns="http://www.w3.org/2000/svg">
<path fill-rule="evenodd" clip-rule="evenodd" d="M98.8216 43.224C98.5709 44.3314 97.5232 45.0722 96.4817 44.8783C95.4402 44.6856 94.7998 43.6305 95.0504 42.5243C95.3011 41.4169 96.3488 40.6762 97.3903 40.8688C98.4318 41.0627 99.0722 42.1167 98.8216 43.224ZM88.8417 42.8375C86.5394 43.0911 84.7309 42.0023 83.9363 40.1368C82.7457 42.2248 81.0638 43.966 79.1224 44.2892C77.0295 44.6372 74.7297 43.7523 73.8825 41.4704C70.7267 45.8925 65.9116 48.966 60.7819 49.2942C52.7045 49.8112 46.8291 43.3347 47.3642 34.703C47.3642 33.9784 47.4206 33.2203 47.5673 32.4174C48.8581 25.3617 48.3794 20.5543 44.1358 22.7604C41.0652 24.3562 40.2869 30.6264 40.2869 30.6264L40.2631 30.5593C39.9122 33.3446 39.6026 35.9471 39.3846 38.0513C39.3545 38.3471 39.2993 38.659 39.2279 38.9797C37.9771 47.8027 30.1855 57.5778 16.6638 56.8868C5.68877 56.325 -0.790704 47.1055 2.3801 37.6946C3.85271 33.3222 9.28444 29.8347 13.132 30.609C17.4371 31.4741 17.8419 34.5253 17.4872 34.6931C16.4983 35.1616 13.8777 35.3841 11.895 37.8922C8.84329 41.7537 7.12003 54.1662 17.6263 55.1343C27.1425 56.0118 31.2883 44.0903 26.3216 37.7157C24.2988 35.1194 19.53 30.921 15.6073 26.6033C11.9552 22.5827 10.4813 19.0741 10.9977 14.0878C11.4276 9.93039 15.428 1.10114 26.8818 1.68776C31.8486 1.94131 37.1462 5.23737 35.3051 8.93611C34.1922 11.1708 30.9274 11.0452 29.9235 9.40094C29.8533 9.28535 31.4914 8.67138 31.6756 7.50682C31.9513 5.77304 29.9661 3.04497 26.6249 2.8747C20.0351 2.53788 16.274 10.1951 21.1443 14.6073C24.8252 17.9419 28.5725 21.2802 31.7922 24.1164C32.1431 20.3207 32.4213 17.3254 32.5178 16.3908C32.5868 15.7258 32.5379 15.3654 32.5379 15.3654C32.5379 15.3654 28.8081 15.2138 29.55 14.3562C29.6653 14.222 32.6356 14.4407 36.6963 12.5416C39.931 11.0278 43.3562 7.94679 43.3562 7.94679C43.3562 7.94679 42.2295 15.691 41.1291 23.9101C42.9451 21.5983 45.9844 18.915 50.3107 18.9262C52.3962 18.9324 53.9866 19.4196 55.1797 20.2287C57.8241 18.1954 60.9273 16.8991 64.157 16.6915C72.4662 16.1596 78.4469 23.0264 77.5145 32.0296C77.5057 32.1129 77.4932 32.1937 77.4831 32.2757C78.6161 31.4629 79.8193 30.9471 80.8344 30.7743C83.6694 30.2958 84.5266 32.0881 84.0341 33.2539C83.44 34.6595 81.6641 34.5999 81.7443 34.3861C82.8572 31.4107 81.5162 31.0005 80.8821 31.4318C80.0023 32.0321 78.7013 34.3786 78.2426 37.7952C77.7927 41.1547 78.3943 43.6503 79.5273 43.3235C82.1566 42.5653 82.5765 36.6456 84.7321 33.5571C84.9377 33.2613 85.1106 33.0289 85.2573 32.8412C86.498 31.1957 88.2752 30.0125 90.199 29.8012C93.5653 29.4308 95.9904 32.0483 95.6169 35.6476C95.2409 39.2469 92.208 42.4659 88.8417 42.8375ZM64.078 17.8822C61.3672 18.0562 59.5612 25.4189 58.744 33.3147C57.9269 41.2094 58.2502 48.183 60.9598 48.009C63.6694 47.835 65.2335 40.7408 66.0507 32.8462C66.8678 24.9516 66.7876 17.7082 64.078 17.8822ZM90.1213 30.6314C89.0221 30.752 88.1661 33.3881 87.8378 36.5462C87.5094 39.7055 87.8328 42.19 88.9306 42.0694C90.0298 41.9489 90.9058 39.2941 91.2342 36.136C91.5638 32.9767 91.2204 30.5096 90.1213 30.6314Z" fill="#9ECFCA"/>
</svg>
