<svg width="24" height="24" viewBox="0 0 24 24" fill="none" xmlns="http://www.w3.org/2000/svg">
<path d="M6 9.99951H10" stroke="#78560C" stroke-width="1.2" stroke-linecap="round" stroke-linejoin="round"/>
<path d="M20.8333 11.0005H18.2308C16.4465 11.0005 15 12.3436 15 14.0005C15 15.6574 16.4465 17.0005 18.2308 17.0005H20.8333C20.9167 17.0005 20.9583 17.0005 20.9935 16.9984C21.5328 16.9655 21.9623 16.5667 21.9977 16.0659C22 16.0332 22 15.9945 22 15.9172V12.0838C22 12.0065 22 11.9678 21.9977 11.9351C21.9623 11.4343 21.5328 11.0355 20.9935 11.0026C20.9583 11.0005 20.9167 11.0005 20.8333 11.0005Z" stroke="#78560C" stroke-width="1.2"/>
<path d="M20.965 11C20.8873 9.12768 20.6366 7.97976 19.8284 7.17156C18.6569 6 16.7712 6 13 6H10C6.22878 6 4.34315 6 3.17157 7.17156C2 8.34312 2 10.2288 2 14C2 17.7712 2 19.6569 3.17157 20.8284C4.34315 22 6.22878 22 10 22H13C16.7712 22 18.6569 22 19.8284 20.8284C20.6366 20.0203 20.8873 18.8723 20.965 17" stroke="#78560C" stroke-width="1.2"/>
<path d="M6 6L9.73548 3.52313C10.7874 2.82562 12.2126 2.82562 13.2645 3.52313L17 6" stroke="#78560C" stroke-width="1.2" stroke-linecap="round"/>
<path d="M17.9912 14.0005H18.0007" stroke="#78560C" stroke-width="1.2" stroke-linecap="round" stroke-linejoin="round"/>
</svg>
